<svg width="18" height="19" viewBox="0 0 18 19" fill="none" xmlns="http://www.w3.org/2000/svg">
<path fill-rule="evenodd" clip-rule="evenodd" d="M2.63604 3.13604C4.32387 1.44821 6.61305 0.5 9 0.5C11.3869 0.5 13.6761 1.44821 15.364 3.13604C17.0518 4.82387 18 7.11305 18 9.5C18 11.8869 17.0518 14.1761 15.364 15.864C13.6761 17.5518 11.3869 18.5 9 18.5C6.61305 18.5 4.32387 17.5518 2.63604 15.864C0.948212 14.1761 0 11.8869 0 9.5C0 7.11305 0.948212 4.82387 2.63604 3.13604ZM9 2.0602C7.02684 2.0602 5.1345 2.84403 3.73927 4.23927C2.34403 5.6345 1.5602 7.52684 1.5602 9.5C1.5602 11.4732 2.34403 13.3655 3.73927 14.7607C5.1345 16.156 7.02684 16.9398 9 16.9398C10.9732 16.9398 12.8655 16.156 14.2607 14.7607C15.656 13.3655 16.4398 11.4732 16.4398 9.5C16.4398 7.52684 15.656 5.6345 14.2607 4.23927C12.8655 2.84403 10.9732 2.0602 9 2.0602Z" fill="#1E1E1E"/>
<path fill-rule="evenodd" clip-rule="evenodd" d="M9.7801 8.0876V14.0739H8.2199V8.0876H9.7801Z" fill="#1E1E1E"/>
<path fill-rule="evenodd" clip-rule="evenodd" d="M9.71338 5.7062C9.75627 5.60956 9.7801 5.50259 9.7801 5.39005C9.7801 4.95921 9.43084 4.60995 9 4.60995C8.70926 4.60995 8.43042 4.72545 8.22483 4.93103C8.01925 5.13662 7.90375 5.41546 7.90375 5.7062C7.90375 5.99694 8.01925 6.27578 8.22483 6.48137C8.43042 6.68695 8.70926 6.80245 9 6.80245C9.43084 6.80245 9.7801 6.45319 9.7801 6.02235C9.7801 5.90981 9.75627 5.80284 9.71338 5.7062Z" fill="#1E1E1E"/>
<path fill-rule="evenodd" clip-rule="evenodd" d="M8.2199 5.39005C8.2199 4.95921 8.56916 4.60995 9 4.60995C9.29074 4.60995 9.56958 4.72545 9.77517 4.93103C9.98075 5.13662 10.0962 5.41546 10.0962 5.7062C10.0962 5.99694 9.98075 6.27578 9.77517 6.48137C9.56958 6.68695 9.29074 6.80245 9 6.80245C8.56916 6.80245 8.2199 6.45319 8.2199 6.02235C8.2199 5.90981 8.24373 5.80284 8.28662 5.7062C8.24373 5.60956 8.2199 5.50259 8.2199 5.39005Z" fill="#1E1E1E"/>
</svg>
